# xmcd
#
# Track frame offsets:
# 150
# 18606
# 31006
# 52789
# 67066
# 91643
# 122260
# 139885
# 157912
# 174074
# 187091
# 210359
# 230038
# 245994
# 262011
# 286104
# 301809
#
# Disc length: 4311 seconds
#
# Revision: 0
# Processed by: cddbd v1.4PL0 Copyright (c) Steve Scherf et al.
# Submitted via: Audion 3.0.2 (http://www.panic.com/audion/)
#
DISCID=dd10d511
DTITLE=mixingmore - frog 9
DYEAR=1900
DGENRE=
TTITLE0=1
TTITLE1=2
TTITLE2=3
TTITLE3=4
TTITLE4=5
TTITLE5=6
TTITLE6=7
TTITLE7=8
TTITLE8=9
TTITLE9=a
TTITLE10=b
TTITLE11=c
TTITLE12=d
TTITLE13=e
TTITLE14=f
TTITLE15=g
TTITLE16=h
EXTD=
EXTT0=
EXTT1=
EXTT2=
EXTT3=
EXTT4=
EXTT5=
EXTT6=
EXTT7=
EXTT8=
EXTT9=
EXTT10=
EXTT11=
EXTT12=
EXTT13=
EXTT14=
EXTT15=
EXTT16=
PLAYORDER=
